<svg id="圖層_1" data-name="圖層 1" xmlns="http://www.w3.org/2000/svg" viewBox="0 0 34.52 36.09"><defs><style>.cls-1{fill:#fff;}</style></defs><title>link</title><path class="cls-1" d="M21.78,23.11a.43.43,0,0,1,.47.55A5.3,5.3,0,0,1,21,25.75C18.24,28.5,15.54,31.3,12.7,34a7.43,7.43,0,0,1-10.15-.3,7.57,7.57,0,0,1-.34-10.49c2.62-2.8,5.35-5.52,8.17-8.11a7.36,7.36,0,0,1,11.06,1.86c.32.54.23.87-.3,1.07a10.43,10.43,0,0,1-1.71.5,1.43,1.43,0,0,1-1.35-.54,4.09,4.09,0,0,0-5.88-.06q-3.7,3.66-7.37,7.35a4.24,4.24,0,0,0,4.08,7.09,4.7,4.7,0,0,0,1.79-1.1c2.48-2.39,4.92-4.83,7.35-7.27a1.64,1.64,0,0,1,1.2-.52,24.11,24.11,0,0,0,2.52-.32Z"/><path class="cls-1" d="M12.84,12.76a.42.42,0,0,1-.45-.58,6.42,6.42,0,0,1,1.55-2.29C15.88,8,17.81,6,19.76,4.09c.62-.61,1.22-1.25,1.88-1.82A7.53,7.53,0,0,1,32.05,13.14c-2.43,2.42-4.85,4.85-7.29,7.25a7.53,7.53,0,0,1-11.63-1.13c-.52-.78-.5-.93.36-1.33a6.56,6.56,0,0,1,1.57-.45,1.44,1.44,0,0,1,1.29.5,4.06,4.06,0,0,0,6.06,0c2.48-2.43,4.93-4.88,7.4-7.33a4.09,4.09,0,0,0,.5-5.13,4,4,0,0,0-4.8-1.71,6.94,6.94,0,0,0-2.17,1.41C21,7.47,18.8,9.75,16.56,12a1.61,1.61,0,0,1-1.2.49C14.52,12.56,13.7,12.66,12.84,12.76Z"/></svg>