<svg id="圖層_1" data-name="圖層 1" xmlns="http://www.w3.org/2000/svg" viewBox="0 0 34.52 36.09"><defs><style>.cls-1{fill:#fff;}</style></defs><title>unlink_工作區域 1</title><rect class="cls-1" x="15.62" y="-1.21" width="3.28" height="38.52" rx="1.64" transform="translate(-7.7 17.49) rotate(-45)"/><path class="cls-1" d="M16.4,11.63a.94.94,0,0,0,1.33,0C19.61,9.71,21.49,7.81,23.42,6a6.77,6.77,0,0,1,2.17-1.41,4,4,0,0,1,4.8,1.7,4.07,4.07,0,0,1-.5,5.13q-3.12,3.11-6.23,6.18a.94.94,0,0,0,0,1.33l1,1a.93.93,0,0,0,1.32,0c2-1.94,3.92-3.9,5.88-5.85a7.75,7.75,0,0,0-.05-11.21A7.54,7.54,0,0,0,21.72,3c-.66.57-1.26,1.2-1.88,1.82L15.35,9.25a1,1,0,0,0,0,1.33Z"/><path class="cls-1" d="M18.08,24.42a.93.93,0,0,0-1.31,0c-2,2-4.1,4.1-6.18,6.11A4.68,4.68,0,0,1,8.8,31.62a4.24,4.24,0,0,1-4.08-7.09c2-2,4.05-4.05,6.08-6.06a1,1,0,0,0,0-1.33l-1-1a.94.94,0,0,0-1.31,0C6.43,18,4.45,20,2.54,22a8.1,8.1,0,0,0-2,7.81,7.39,7.39,0,0,0,12,3.45C14.83,31.16,17,29,19.14,26.8a.94.94,0,0,0,0-1.32Z"/></svg>