<svg id="圖層_1" data-name="圖層 1" xmlns="http://www.w3.org/2000/svg" viewBox="0 0 130 92"><defs><style>.cls-1{fill:#bfbfbf;}.cls-2{fill:#463f6f;}.cls-3{fill:#aaa;}.cls-4{fill:#5a5190;}.cls-5{fill:#868687;}.cls-6{fill:#c1c230;}.cls-7{fill:#3b365f;}.cls-8{fill:#f7ec13;}</style></defs><title>nsogamecubecontroller</title><ellipse class="cls-1" cx="27.28" cy="21.6" rx="14.07" ry="17.67" transform="translate(-6.36 12.71) rotate(-23.57)"/><ellipse class="cls-1" cx="102.69" cy="21.52" rx="17.67" ry="14.07" transform="translate(41.9 107.04) rotate(-66.43)"/><path class="cls-2" d="M129.7,37.79c0-.36-.06-.72-.09-1.08a23.9,23.9,0,0,0,0-5.28,23.3,23.3,0,0,0-9.9-16.49V13.27a.49.49,0,0,0-.26-.44c-4.28-2.21-16.9-7-21.35-8.57-.94-.32-1.59-.15-1.74,0s-.46.63-.61.86a.51.51,0,0,1-.57.19A97.9,97.9,0,0,0,63.87,0,97.12,97.12,0,0,0,28.61,6.9a.5.5,0,0,1-.6-.19l-.27-.41a.5.5,0,0,0-.63-.18L21.25,8.83a.48.48,0,0,0-.26.6l.16.47a.5.5,0,0,1-.3.62,7,7,0,0,0-.86.35l-.51.29A23.28,23.28,0,0,0,.49,37.5a2.17,2.17,0,0,1-.1.21.45.45,0,0,0,0,.2C.25,44.29-1.1,67.35,2.29,78.43,6.13,91,10.85,92,12.66,92s9-1.1,10.71-13.46a151.07,151.07,0,0,0,1.14-15.41c3.12,4.09,2.93,9,6.65,12.39,4.25,3.85,10.36,7.56,19.6,3.48,7.65-3.37,10-12.57,9-17.56C58,53.3,53.16,51.85,51.21,48c-.63-1.24-1.14-2.25-1.57-3.23h0a53.85,53.85,0,0,1,14.51-2,58.25,58.25,0,0,1,16,2.46c-.38.83-.83,1.71-1.35,2.75-2,3.9-6.78,5.35-8.52,13.49-1.07,5,1.32,14.19,9,17.56,9.24,4.08,15.36.37,19.61-3.48,3.75-3.38,3.52-8.38,6.72-12.48.11,3.48.44,14.67,2,19.26s4.34,9.7,9.86,9.7c5.23,0,8.35-7.33,9.52-10.91,2.46-7.55,2.9-15.31,3-22.78C130,51.44,130.06,44.69,129.7,37.79Z"/><path class="cls-3" d="M63.87,1.28A97.13,97.13,0,0,1,94.74,6.57a2,2,0,0,0,.59.1,1.81,1.81,0,0,0,1.49-.79l.35-.52a1.77,1.77,0,0,1,.49.11C102.18,7,114,11.54,118.41,13.75v1.19A1.26,1.26,0,0,0,119,16a22.45,22.45,0,0,1,6.42,6.88,22,22,0,0,1,2.94,8.7,23.21,23.21,0,0,1,0,5,1.22,1.22,0,0,0,0,.27c0,.37.07.71.08,1,.35,6.52.35,12.88.25,20.43-.11,7.26-.53,15-2.94,22.41-.77,2.35-3.63,10-8.29,10-3.78,0-6.61-2.89-8.63-8.83-1.45-4.26-1.81-15-1.93-18.52V63a1.28,1.28,0,0,0-.9-1.18,1.32,1.32,0,0,0-.39-.06,1.27,1.27,0,0,0-1,.5,21.36,21.36,0,0,0-3.1,6.21c-.85,2.29-1.64,4.46-3.46,6.11-2.34,2.11-6,4.91-11,4.91a17.89,17.89,0,0,1-7.17-1.66c-6.87-3-9.22-11.46-8.22-16.13,1-4.9,3.2-7.1,5.29-9.24A15.68,15.68,0,0,0,80,48.52l.27-.55c.42-.82.78-1.54,1.1-2.23a1.3,1.3,0,0,0,0-1.06,1.26,1.26,0,0,0-.81-.7,59,59,0,0,0-16.34-2.52h-.29a55.51,55.51,0,0,0-14.58,2h0a1.29,1.29,0,0,0-.83,1.75c.38.86.82,1.73,1.33,2.75l.27.53a15.64,15.64,0,0,0,3.11,3.94,16.77,16.77,0,0,1,5.3,9.24c1,4.67-1.36,13.1-8.23,16.13a17.89,17.89,0,0,1-7.16,1.66c-5,0-8.71-2.8-11-4.91-1.82-1.65-2.62-3.82-3.46-6.11a21.62,21.62,0,0,0-3-6.11,1.28,1.28,0,0,0-1-.51,1.39,1.39,0,0,0-.4.06,1.29,1.29,0,0,0-.89,1.19,151.09,151.09,0,0,1-1.13,15.27c-1.62,12-8.64,12.35-9.43,12.35A5.16,5.16,0,0,1,9.14,89c-2.13-2.06-4-5.75-5.61-11-2.85-9.3-2.27-27.65-2-36.46,0-1.39.08-2.59.1-3.49l0-.05a1.23,1.23,0,0,0,.11-.73,22,22,0,0,1,18-24.9,1.59,1.59,0,0,0,.43-.16,4.62,4.62,0,0,1,.46-.26,5.11,5.11,0,0,1,.49-.21l.21-.07a1.79,1.79,0,0,0,1.12-2l4.62-2.13a1.76,1.76,0,0,0,1.38.64,1.84,1.84,0,0,0,.66-.12A95.5,95.5,0,0,1,63.87,1.28M97.38,5.09h0M27.66,7.28h0m-26,30.65h0M63.87,0A97.12,97.12,0,0,0,28.61,6.9l-.18,0A.51.51,0,0,1,28,6.71l-.27-.41a.49.49,0,0,0-.41-.22.54.54,0,0,0-.22,0L21.25,8.83a.48.48,0,0,0-.26.6l.16.47a.5.5,0,0,1-.3.62,7,7,0,0,0-.86.35l-.51.29A23.28,23.28,0,0,0,.49,37.5a2.17,2.17,0,0,1-.1.21.45.45,0,0,0,0,.2C.25,44.29-1.1,67.35,2.29,78.43,6.13,91,10.85,92,12.66,92s9-1.1,10.71-13.46a151.07,151.07,0,0,0,1.14-15.41c3.12,4.09,2.93,9,6.65,12.39,2.94,2.66,6.77,5.25,11.91,5.25A18.92,18.92,0,0,0,50.76,79c7.65-3.37,10-12.57,9-17.56C58,53.3,53.16,51.85,51.21,48c-.63-1.24-1.14-2.25-1.57-3.23h0a53.84,53.84,0,0,1,14.23-2h.28a58.25,58.25,0,0,1,16,2.46c-.38.83-.83,1.71-1.35,2.75-2,3.9-6.78,5.35-8.52,13.49-1.07,5,1.32,14.19,9,17.56a19,19,0,0,0,7.7,1.77c5.14,0,9-2.59,11.91-5.25,3.75-3.38,3.52-8.38,6.72-12.48.11,3.48.44,14.67,2,19.26s4.34,9.7,9.86,9.7c5.23,0,8.35-7.33,9.52-10.91,2.46-7.55,2.9-15.31,3-22.78.09-6.87.12-13.62-.24-20.52,0-.36-.06-.72-.09-1.08a23.9,23.9,0,0,0,0-5.28,23.3,23.3,0,0,0-9.9-16.49V13.27a.49.49,0,0,0-.26-.44c-4.28-2.21-16.9-7-21.35-8.57a3,3,0,0,0-1-.18,1,1,0,0,0-.77.23c-.24.31-.46.63-.61.86a.48.48,0,0,1-.41.21.41.41,0,0,1-.16,0A97.9,97.9,0,0,0,63.87,0Z"/><ellipse class="cls-4" cx="24.35" cy="34.3" rx="16.26" ry="16.11"/><polygon class="cls-5" points="24.32 22.16 17.11 24.48 12.66 30.55 12.66 38.06 17.11 44.13 24.32 46.45 31.52 44.13 35.98 38.06 35.98 30.55 31.52 24.48 24.32 22.16"/><polygon class="cls-6" points="86.76 53 80.1 55.14 75.98 60.76 75.98 67.69 80.1 73.31 86.76 75.45 93.42 73.31 97.54 67.69 97.54 60.76 93.42 55.14 86.76 53"/><ellipse class="cls-4" cx="106.22" cy="34.3" rx="14.88" ry="14.74"/><ellipse class="cls-7" cx="43.51" cy="64.24" rx="11.26" ry="11.15"/><path class="cls-3" d="M51.21,60.64H46.82V56.28a1.55,1.55,0,0,0-1.56-1.54H41.4a1.55,1.55,0,0,0-1.56,1.54v4.36h-4.4a1.55,1.55,0,0,0-1.56,1.54V66a1.55,1.55,0,0,0,1.56,1.55h4.4v4.36a1.55,1.55,0,0,0,1.56,1.54h3.86a1.55,1.55,0,0,0,1.56-1.54V67.55h4.39A1.55,1.55,0,0,0,52.77,66V62.18A1.55,1.55,0,0,0,51.21,60.64Z"/><path class="cls-3" d="M24.37,24.85a9.34,9.34,0,1,0,9.43,9.34A9.4,9.4,0,0,0,24.37,24.85Z"/><ellipse class="cls-3" cx="65.67" cy="34.82" rx="3.13" ry="3.1"/><ellipse class="cls-3" cx="106.19" cy="34.13" rx="7.91" ry="7.83"/><ellipse class="cls-3" cx="92.07" cy="41.81" rx="4.62" ry="4.58"/><ellipse class="cls-8" cx="86.8" cy="64.17" rx="6.16" ry="6.1"/><path class="cls-3" d="M117.22,28.63c.76,1.17,1.44,2.31,1.51,6.86.07,4,5.89,3.18,6-.84.1-3.24-1-8.89-4.5-10A2.65,2.65,0,0,0,117.22,28.63Z"/><path class="cls-3" d="M100.77,23.35c1.17-.77,2.32-1.46,6.9-1.58,4-.11,3.15-5.86-.91-5.94-3.27-.06-9,1.1-10,4.57A2.67,2.67,0,0,0,100.77,23.35Z"/></svg>